<svg xmlns="http://www.w3.org/2000/svg" viewBox="0 0 520 420" role="img" aria-label=">=VB>@ 7 "-4V03=>AB8:>N">
  <rect width="520" height="420" fill="#EAF6F6"/>
  <!-- monitor body -->
  <rect x="70" y="48" width="380" height="260" rx="14" fill="#154766"/>
  <rect x="88" y="66" width="344" height="210" rx="6" fill="#0f3550"/>
  <!-- screen content -->
  <rect x="110" y="92" width="130" height="14" rx="3" fill="#2AA5B6"/>
  <rect x="110" y="120" width="300" height="8" rx="2" fill="#3a6a82"/>
  <rect x="110" y="138" width="260" height="8" rx="2" fill="#3a6a82"/>
  <rect x="110" y="156" width="220" height="8" rx="2" fill="#3a6a82"/>
  <rect x="110" y="190" width="90" height="58" rx="6" fill="#2AA5B6" opacity="0.9"/>
  <rect x="214" y="190" width="90" height="58" rx="6" fill="#3CCB5A" opacity="0.95"/>
  <rect x="318" y="190" width="90" height="58" rx="6" fill="#EAF6F6" opacity="0.9"/>
  <circle cx="400" cy="108" r="22" fill="#3CCB5A"/>
  <path d="M390 108h10l5 5 12-14" fill="none" stroke="#154766" stroke-width="3" stroke-linecap="round" stroke-linejoin="round"/>
  <!-- stand -->
  <rect x="230" y="308" width="60" height="18" rx="3" fill="#154766"/>
  <rect x="180" y="326" width="160" height="14" rx="4" fill="#2AA5B6"/>
  <!-- soft glow ring -->
  <circle cx="260" cy="180" r="150" fill="none" stroke="#2AA5B6" stroke-width="1" opacity="0.25"/>
</svg>
